#define arrow_width 16
#define arrow_height 16
#define arrow_x_hot 1
#define arrow_y_hot 1
static unsigned char arrow_bits[] = {
   0x00, 0x00, 0x40, 0x00, 0x60, 0x00, 0x70, 0x00, 0x78, 0x00, 0x7c, 0x00,
   0x7e, 0x00, 0x7f, 0x00, 0x7c, 0x00, 0x6c, 0x00, 0x46, 0x00, 0x06, 0x00,
   0x03, 0x00, 0x03, 0x00, 0x00, 0x00, 0x00, 0x00};