#define arrow_mask_width 16
#define arrow_mask_height 16
#define arrow_x_hot 1
#define arrow_y_hot 1
static unsigned char arrow_mask_bits[] = {
   0x40, 0x00, 0xe0, 0x00, 0xf0, 0x00, 0xf8, 0x00, 0xfc, 0x00, 0xfe, 0x00,
   0xff, 0x00, 0xff, 0x80, 0xfe, 0x00, 0xfe, 0x00, 0xef, 0x00, 0x0f, 0x00,
   0x07, 0x00, 0x07, 0x00, 0x03, 0x00, 0x00, 0x00};