#define hand_mask_width 16
#define hand_mask_height 16
#define hand_mask_x_hot 6  # Fix: Changed from arrow to hand
#define hand_mask_y_hot 1
static unsigned char hand_mask_bits[] = {
   0x80, 0x01, 0xc0, 0x03, 0xfc, 0x0f, 0xfc, 0x0f, 0xfc, 0x0f, 0xfc, 0x0f,
   0xfc, 0x0f, 0xfc, 0x0f, 0xfc, 0x0f, 0xfc, 0x0f, 0xf8, 0x07, 0xf0, 0x03,
   0xe0, 0x01, 0xc0, 0x00, 0x80, 0x00, 0x00, 0x00};