#define hand_width 16
#define hand_height 16
#define hand_x_hot 6
#define hand_y_hot 1
static unsigned char hand_bits[] = {
   0x00, 0x00, 0x80, 0x01, 0x58, 0x0e, 0x58, 0x0e, 0x58, 0x0e, 0x58, 0x0e,
   0x58, 0x0e, 0x58, 0x0e, 0xd8, 0x0d, 0xf8, 0x0f, 0xf0, 0x07, 0xe0, 0x03,
   0xc0, 0x01, 0x80, 0x00, 0x00, 0x00, 0x00, 0x00};